<svg xmlns="http://www.w3.org/2000/svg" viewBox="0 0 568.48 105"><defs><style>.cls-1{fill:#8fc63f;}.cls-2{fill:#353535;}.cls-3{fill:#fff;}</style></defs><g id="Layer_2" data-name="Layer 2"><g id="Layer_1-2" data-name="Layer 1"><polygon class="cls-1" points="76.77 11.25 76.77 105 57.41 105 38.39 75.11 19.37 105 0 105 0 11.25 19.37 11.25 38.39 41.14 57.41 11.25 76.77 11.25"/><circle class="cls-1" cx="38.39" cy="11.25" r="11.25"/><path class="cls-2" d="M150.44,10.78h-18V14h-31v9.8h31v3.27H99.82v8.16h1.63V71.2h16.33V35.27H122l5.58,8.17h-8.17V50h13.07v4.9H119.41V61.4h13.07v8.16h18V61.4H163.5V54.87H150.44V50H163.5V43.44H157l5.58-8.17h2.59V71.2h16.33V27.11h-31V23.84h31V14h-31Zm-8.16,32.66-5.58-8.17h11.15Z"/><path class="cls-2" d="M388,12.41H355v8.16H388v1.64H356.19V38.54h16.33V27.11h3.27V38.54h40.82V27.11h3.27V38.54h16.33V22.21H403.55V20.57h33.07V12.41H388ZM384,33.64V27.11H388v6.53Zm24.5-6.53v6.53h-4.9V27.11Z"/><path class="cls-2" d="M355,41.81V46.7h1.22V67.93h13.3a4.67,4.67,0,0,0,4.67-4.66V63H399.9l5.51,8.06h22.86L422.76,63h13.45V46.7h.41V41.81Zm19.19,4.89h3.25V50h-3.25Zm11.42,11.44H374.16V54.87h11.42Zm34.29,0h-6.52V54.87h6.52Zm0-8.17h-18V46.7h18Z"/><path class="cls-2" d="M307.11,12.41H287.87l-7.93,16.33h-2.13V12.41H261.48V28.74h-2.13l-7.93-16.33H232.19l7.93,16.33h-11.3V36.9h16.33V63H228.82V71.2h27.46a6.83,6.83,0,0,0,6.83-6.84V36.9h13.07V64.36A6.83,6.83,0,0,0,283,71.2h27.46V63H294.14V36.9h16.33V28.74h-11.3Z"/><path class="cls-2" d="M568.48,71.2l-8.39-16.88L564,50h-6.08L556.3,46.7h8.91V38.54h-8.16V41.8h-9.8V38.54h-8.17V41.8H516.22v4.9h2.57l-1.71,7.42L509.69,31.5V28.74h4.9V20.57h-4.9V14H493.36v6.53H485.2v8.17h8.16L482.42,63h10.94V71.2h16.33V56.5h6.84l-3.39,14.7h31.78l5.26-5.85,2.9,5.85ZM533.72,59.77h7.47l-10,11.17Zm9.2-1.92-6.19-11.13v0h4.16l4.29,8.62Z"/><polygon class="cls-2" points="566.85 36.9 566.85 32.01 557.36 32.01 563.36 22.24 558.34 22.24 563.36 14.08 548.35 14.08 542.35 23.84 547.37 23.84 542.35 32.01 532.86 32.01 538.86 22.24 533.85 22.24 538.86 14.08 523.85 14.08 517.86 23.84 522.87 23.84 517.86 32.01 517.86 36.9 542.35 36.9 566.85 36.9"/><path class="cls-2" d="M122.44,104.3h-5.68L104.84,87.06V104.3h-5v-25h5.68l11.92,17.34V79.27h5Z"/><path class="cls-2" d="M151.94,104.3h-5.42L143.94,98h-10.5l-2.61,6.27h-5.45l10.44-25h5.91Zm-9.75-10.57-3.43-8.45-3.54,8.45Z"/><path class="cls-2" d="M159.63,87.29v17h-5v-25h5.68l8.32,12.35,8.32-12.35h5.69v25h-5v-17l-9,12.45Z"/><path class="cls-2" d="M207.15,90.1l10,14.2H211l-7.26-10.37-4.43,5v5.35h-5v-25h5v12l10.93-12.09H217Z"/><path class="cls-2" d="M247.34,104.3H243l-6.08-17.37-5.42,17.37H227.2l-8.46-25H224l5.36,16.64,4.78-16.61h5.49l5,16.61,4.23-16.64h5.28Z"/><path class="cls-2" d="M278.49,104.3h-5.42L270.49,98H260l-2.61,6.27h-5.45l10.44-25h5.91Zm-9.75-10.57-3.43-8.45-3.54,8.45Z"/><path class="cls-2" d="M303.72,104.3H298L286.11,87.06V104.3h-5v-25h5.68L298.7,96.61V79.27h5Z"/><path class="cls-2" d="M331.33,93.7c-.76,6.8-4.93,10.87-12,10.87-8.09,0-12.69-5.65-12.69-12.79S311.28,79,319.37,79a11.88,11.88,0,0,1,10.8,6L326,87.39a7.55,7.55,0,0,0-6.63-4c-5.19,0-7.63,4.07-7.63,8.39s2.51,8.43,7.63,8.43c3,0,6.87-1.36,7-5.29H320V91h11.36A17,17,0,0,1,331.33,93.7Z"/><path class="cls-2" d="M360.91,83.56H347.54v5.71h11.62v4.3H347.54V100h13.37v4.29H342.52v-25h18.39Z"/><path class="cls-2" d="M369.47,100h11.59v4.29H364.44v-25h5Z"/><path class="cls-2" d="M401.67,83.56H388.29v5.71h11.63v4.3H388.29V100h13.38v4.29h-18.4v-25h18.4Z"/><path class="cls-2" d="M403.94,91.78c0-7,4.82-12.81,12.36-12.78A12.14,12.14,0,0,1,425,82.73l-3.21,3.54a6.81,6.81,0,0,0-5.55-2.91c-4.49,0-7.3,4-7.3,8.42s2.81,8.43,7.3,8.43a6.41,6.41,0,0,0,5.32-2.71l3.44,3.33a11.28,11.28,0,0,1-8.72,3.74C408.76,104.57,403.94,98.79,403.94,91.78Z"/><path class="cls-2" d="M445.56,83.56h-6.87V104.3h-5V83.56h-7V79.27h18.9Z"/><path class="cls-2" d="M448.49,79.27h12.19c4.3,0,7.76,3.46,7.76,8.55-.33,4.39-2.44,6.41-5,8.06l6.17,8.42h-6.21l-5.55-7.53h-4.36v7.53h-5ZM463.42,88c0-2-.95-4.46-3.83-4.46h-6.08v8.92h6.08C462,92.48,463.42,90,463.42,88Z"/><path class="cls-2" d="M477.62,79.27v25h-5v-25Z"/><path class="cls-2" d="M480.59,91.78c0-7,4.82-12.81,12.36-12.78a12.14,12.14,0,0,1,8.72,3.73l-3.21,3.54a6.81,6.81,0,0,0-5.55-2.91c-4.49,0-7.3,4-7.3,8.42s2.81,8.43,7.3,8.43a6.41,6.41,0,0,0,5.32-2.71l3.44,3.33a11.28,11.28,0,0,1-8.72,3.74C485.41,104.57,480.59,98.79,480.59,91.78Z"/><path class="cls-2" d="M511.6,91.78c0-7,4.83-12.81,12.36-12.78a12.14,12.14,0,0,1,8.72,3.73l-3.21,3.54a6.81,6.81,0,0,0-5.55-2.91c-4.49,0-7.3,4-7.3,8.42s2.81,8.43,7.3,8.43a6.41,6.41,0,0,0,5.32-2.71l3.44,3.33a11.28,11.28,0,0,1-8.72,3.74C516.43,104.57,511.6,98.79,511.6,91.78Z"/><path class="cls-2" d="M547.14,79a12.79,12.79,0,1,1-12.68,12.78A12.44,12.44,0,0,1,547.14,79Zm7.66,12.78c0-4.29-2.94-8.42-7.66-8.42s-7.66,4.13-7.66,8.42,2.9,8.43,7.66,8.43S554.8,96.11,554.8,91.78Z"/><path class="cls-2" d="M568.11,102.39a2.61,2.61,0,1,1-2.61-2.61A2.47,2.47,0,0,1,568.11,102.39Z"/><polygon class="cls-3" points="18.25 41.26 18.25 74.98 31.32 58.12 18.25 41.26"/><polygon class="cls-3" points="58.53 41.26 58.53 74.98 45.45 58.12 58.53 41.26"/></g></g></svg>